# File generated by ImageToStl.com - Free Image and 3D model conversion tools

mtllib half-cube.mtl

o obj1
v 0.49999943 -0.50000006 0.5
v -0.49999958 0.49999994 -0.5
v 0.5 0.49999949 0.5
v -0.49999973 0.49999976 0.5
v -0.49999994 -0.49999958 0.5
v -0.49999982 -0.49999967 -0.5
vn 0.77344 -0.54692 0.32041
vn -0.32041 0.54692 -0.77344
vn 0.77345 0.54694 0.32037
vn -0.57734 0.57734 0.57737
vn -0.57737 -0.57734 0.57734
vn -0.32037 -0.54694 -0.77345
usemtl mat0
f 1//1 2//2 3//3
f 4//4 1//1 3//3
f 1//1 5//5 6//6
f 5//5 2//2 6//6
f 3//3 2//2 4//4
f 1//1 6//6 2//2
f 4//4 5//5 1//1
f 5//5 4//4 2//2
# Vertices: 6, normals: 6, texture coordinates: 0, faces: 8

